<?xml version="1.0" encoding="UTF-8" standalone="no"?>
<!DOCTYPE svg PUBLIC "-//W3C//DTD SVG 1.1//EN"
 "http://www.w3.org/Graphics/SVG/1.1/DTD/svg11.dtd">
<!-- Generated by graphviz version 2.43.0 (0)
 -->
<!-- Title: ERD Pages: 1 -->
<svg width="689pt" height="950pt"
 viewBox="0.00 0.00 689.00 949.50" xmlns="http://www.w3.org/2000/svg" xmlns:xlink="http://www.w3.org/1999/xlink">
<g id="graph0" class="graph" transform="scale(1 1) rotate(0) translate(4 945.5)">
<title>ERD</title>
<polygon fill="white" stroke="transparent" points="-4,4 -4,-945.5 685,-945.5 685,4 -4,4"/>
<!-- jurisdictions -->
<g id="node1" class="node">
<title>jurisdictions</title>
<polygon fill="#1f3a5f" stroke="transparent" points="8.5,-603 8.5,-624 171.5,-624 171.5,-603 8.5,-603"/>
<polygon fill="none" stroke="black" points="8.5,-603 8.5,-624 171.5,-624 171.5,-603 8.5,-603"/>
<text text-anchor="start" x="42" y="-610.8" font-family="Helvetica,sans-Serif" font-weight="bold" font-size="14.00" fill="white">jurisdictions</text>
<polygon fill="#fff6d6" stroke="transparent" points="8.5,-582 8.5,-603 171.5,-603 171.5,-582 8.5,-582"/>
<polygon fill="none" stroke="black" points="8.5,-582 8.5,-603 171.5,-603 171.5,-582 8.5,-582"/>
<text text-anchor="start" x="11.5" y="-589.8" font-family="Helvetica,sans-Serif" font-weight="bold" font-size="14.00">jurisdiction_id</text>
<text text-anchor="start" x="120.5" y="-589.8" font-family="Helvetica,sans-Serif" font-size="14.00"> 🔑</text>
<polygon fill="#ffffff" stroke="transparent" points="8.5,-561 8.5,-582 171.5,-582 171.5,-561 8.5,-561"/>
<polygon fill="none" stroke="black" points="8.5,-561 8.5,-582 171.5,-582 171.5,-561 8.5,-561"/>
<text text-anchor="start" x="11.5" y="-567.8" font-family="Helvetica,sans-Serif" font-size="14.00">state_code</text>
<polygon fill="#ffffff" stroke="transparent" points="8.5,-540 8.5,-561 171.5,-561 171.5,-540 8.5,-540"/>
<polygon fill="none" stroke="black" points="8.5,-540 8.5,-561 171.5,-561 171.5,-540 8.5,-540"/>
<text text-anchor="start" x="11.5" y="-546.8" font-family="Helvetica,sans-Serif" font-size="14.00">state_name</text>
<polygon fill="#ffffff" stroke="transparent" points="8.5,-519 8.5,-540 171.5,-540 171.5,-519 8.5,-519"/>
<polygon fill="none" stroke="black" points="8.5,-519 8.5,-540 171.5,-540 171.5,-519 8.5,-519"/>
<text text-anchor="start" x="11.5" y="-525.8" font-family="Helvetica,sans-Serif" font-size="14.00">locality</text>
<polygon fill="#ffffff" stroke="transparent" points="8.5,-498 8.5,-519 171.5,-519 171.5,-498 8.5,-498"/>
<polygon fill="none" stroke="black" points="8.5,-498 8.5,-519 171.5,-519 171.5,-498 8.5,-498"/>
<text text-anchor="start" x="11.5" y="-504.8" font-family="Helvetica,sans-Serif" font-size="14.00">nexus_sales_threshold</text>
<polygon fill="#ffffff" stroke="transparent" points="8.5,-477 8.5,-498 171.5,-498 171.5,-477 8.5,-477"/>
<polygon fill="none" stroke="black" points="8.5,-477 8.5,-498 171.5,-498 171.5,-477 8.5,-477"/>
<text text-anchor="start" x="11.5" y="-483.8" font-family="Helvetica,sans-Serif" font-size="14.00">nexus_txn_threshold</text>
</g>
<!-- tax_rates -->
<g id="node2" class="node">
<title>tax_rates</title>
<polygon fill="#1f3a5f" stroke="transparent" points="293,-151 293,-172 412,-172 412,-151 293,-151"/>
<polygon fill="none" stroke="black" points="293,-151 293,-172 412,-172 412,-151 293,-151"/>
<text text-anchor="start" x="315.5" y="-158.8" font-family="Helvetica,sans-Serif" font-weight="bold" font-size="14.00" fill="white">tax_rates</text>
<polygon fill="#fff6d6" stroke="transparent" points="293,-130 293,-151 412,-151 412,-130 293,-130"/>
<polygon fill="none" stroke="black" points="293,-130 293,-151 412,-151 412,-130 293,-130"/>
<text text-anchor="start" x="296" y="-137.8" font-family="Helvetica,sans-Serif" font-weight="bold" font-size="14.00">rate_id</text>
<text text-anchor="start" x="351" y="-137.8" font-family="Helvetica,sans-Serif" font-size="14.00"> 🔑</text>
<polygon fill="#ffffff" stroke="transparent" points="293,-109 293,-130 412,-130 412,-109 293,-109"/>
<polygon fill="none" stroke="black" points="293,-109 293,-130 412,-130 412,-109 293,-109"/>
<text text-anchor="start" x="296" y="-115.8" font-family="Helvetica,sans-Serif" font-size="14.00">jurisdiction_id ↗</text>
<polygon fill="#ffffff" stroke="transparent" points="293,-88 293,-109 412,-109 412,-88 293,-88"/>
<polygon fill="none" stroke="black" points="293,-88 293,-109 412,-109 412,-88 293,-88"/>
<text text-anchor="start" x="296" y="-94.8" font-family="Helvetica,sans-Serif" font-size="14.00">tax_category</text>
<polygon fill="#ffffff" stroke="transparent" points="293,-67 293,-88 412,-88 412,-67 293,-67"/>
<polygon fill="none" stroke="black" points="293,-67 293,-88 412,-88 412,-67 293,-67"/>
<text text-anchor="start" x="296" y="-73.8" font-family="Helvetica,sans-Serif" font-size="14.00">is_taxable</text>
<polygon fill="#ffffff" stroke="transparent" points="293,-46 293,-67 412,-67 412,-46 293,-46"/>
<polygon fill="none" stroke="black" points="293,-46 293,-67 412,-67 412,-46 293,-46"/>
<text text-anchor="start" x="296" y="-52.8" font-family="Helvetica,sans-Serif" font-size="14.00">combined_rate</text>
<polygon fill="#ffffff" stroke="transparent" points="293,-25 293,-46 412,-46 412,-25 293,-25"/>
<polygon fill="none" stroke="black" points="293,-25 293,-46 412,-46 412,-25 293,-25"/>
<text text-anchor="start" x="296" y="-31.8" font-family="Helvetica,sans-Serif" font-size="14.00">effective_from</text>
<polygon fill="#ffffff" stroke="transparent" points="293,-4 293,-25 412,-25 412,-4 293,-4"/>
<polygon fill="none" stroke="black" points="293,-4 293,-25 412,-25 412,-4 293,-4"/>
<text text-anchor="start" x="296" y="-10.8" font-family="Helvetica,sans-Serif" font-size="14.00">effective_to</text>
</g>
<!-- jurisdictions&#45;&gt;tax_rates -->
<g id="edge1" class="edge">
<title>jurisdictions:jurisdiction_id&#45;&gt;tax_rates:jurisdiction_id</title>
<path fill="none" stroke="#5b6b7a" d="M172.5,-593C277.74,-593 189.11,-147.31 282.99,-121.19"/>
<polygon fill="#5b6b7a" stroke="#5b6b7a" points="283.08,-121.18 292.53,-124.01 287.54,-120.59 292,-120 292,-120 292,-120 287.54,-120.59 291.47,-115.99 283.08,-121.18 283.08,-121.18"/>
</g>
<!-- exemption_certificates -->
<g id="node5" class="node">
<title>exemption_certificates</title>
<polygon fill="#1f3a5f" stroke="transparent" points="259,-725 259,-746 445,-746 445,-725 259,-725"/>
<polygon fill="none" stroke="black" points="259,-725 259,-746 445,-746 445,-725 259,-725"/>
<text text-anchor="start" x="262" y="-732.8" font-family="Helvetica,sans-Serif" font-weight="bold" font-size="14.00" fill="white">exemption_certificates</text>
<polygon fill="#fff6d6" stroke="transparent" points="259,-704 259,-725 445,-725 445,-704 259,-704"/>
<polygon fill="none" stroke="black" points="259,-704 259,-725 445,-725 445,-704 259,-704"/>
<text text-anchor="start" x="262" y="-711.8" font-family="Helvetica,sans-Serif" font-weight="bold" font-size="14.00">certificate_id</text>
<text text-anchor="start" x="365" y="-711.8" font-family="Helvetica,sans-Serif" font-size="14.00"> 🔑</text>
<polygon fill="#ffffff" stroke="transparent" points="259,-683 259,-704 445,-704 445,-683 259,-683"/>
<polygon fill="none" stroke="black" points="259,-683 259,-704 445,-704 445,-683 259,-683"/>
<text text-anchor="start" x="262" y="-689.8" font-family="Helvetica,sans-Serif" font-size="14.00">customer_id ↗</text>
<polygon fill="#ffffff" stroke="transparent" points="259,-662 259,-683 445,-683 445,-662 259,-662"/>
<polygon fill="none" stroke="black" points="259,-662 259,-683 445,-683 445,-662 259,-662"/>
<text text-anchor="start" x="262" y="-668.8" font-family="Helvetica,sans-Serif" font-size="14.00">jurisdiction_id ↗</text>
<polygon fill="#ffffff" stroke="transparent" points="259,-641 259,-662 445,-662 445,-641 259,-641"/>
<polygon fill="none" stroke="black" points="259,-641 259,-662 445,-662 445,-641 259,-641"/>
<text text-anchor="start" x="262" y="-647.8" font-family="Helvetica,sans-Serif" font-size="14.00">exemption_type</text>
<polygon fill="#ffffff" stroke="transparent" points="259,-620 259,-641 445,-641 445,-620 259,-620"/>
<polygon fill="none" stroke="black" points="259,-620 259,-641 445,-641 445,-620 259,-620"/>
<text text-anchor="start" x="262" y="-626.8" font-family="Helvetica,sans-Serif" font-size="14.00">issued_date</text>
<polygon fill="#ffffff" stroke="transparent" points="259,-599 259,-620 445,-620 445,-599 259,-599"/>
<polygon fill="none" stroke="black" points="259,-599 259,-620 445,-620 445,-599 259,-599"/>
<text text-anchor="start" x="262" y="-605.8" font-family="Helvetica,sans-Serif" font-size="14.00">expiry_date</text>
<polygon fill="#ffffff" stroke="transparent" points="259,-578 259,-599 445,-599 445,-578 259,-578"/>
<polygon fill="none" stroke="black" points="259,-578 259,-599 445,-599 445,-578 259,-578"/>
<text text-anchor="start" x="262" y="-584.8" font-family="Helvetica,sans-Serif" font-size="14.00">certificate_no</text>
</g>
<!-- jurisdictions&#45;&gt;exemption_certificates -->
<g id="edge2" class="edge">
<title>jurisdictions:jurisdiction_id&#45;&gt;exemption_certificates:jurisdiction_id</title>
<path fill="none" stroke="#5b6b7a" d="M172.5,-593C221.29,-593 208.01,-663.31 249.04,-672.1"/>
<polygon fill="#5b6b7a" stroke="#5b6b7a" points="249.04,-672.1 257.6,-677.03 253.52,-672.55 258,-673 258,-673 258,-673 253.52,-672.55 258.4,-668.97 249.04,-672.1 249.04,-672.1"/>
</g>
<!-- transactions -->
<g id="node6" class="node">
<title>transactions</title>
<polygon fill="#1f3a5f" stroke="transparent" points="281,-916 281,-937 424,-937 424,-916 281,-916"/>
<polygon fill="none" stroke="black" points="281,-916 281,-937 424,-937 424,-916 281,-916"/>
<text text-anchor="start" x="303" y="-923.8" font-family="Helvetica,sans-Serif" font-weight="bold" font-size="14.00" fill="white">transactions</text>
<polygon fill="#fff6d6" stroke="transparent" points="281,-895 281,-916 424,-916 424,-895 281,-895"/>
<polygon fill="none" stroke="black" points="281,-895 281,-916 424,-916 424,-895 281,-895"/>
<text text-anchor="start" x="284" y="-902.8" font-family="Helvetica,sans-Serif" font-weight="bold" font-size="14.00">transaction_id</text>
<text text-anchor="start" x="396" y="-902.8" font-family="Helvetica,sans-Serif" font-size="14.00"> 🔑</text>
<polygon fill="#ffffff" stroke="transparent" points="281,-874 281,-895 424,-895 424,-874 281,-874"/>
<polygon fill="none" stroke="black" points="281,-874 281,-895 424,-895 424,-874 281,-874"/>
<text text-anchor="start" x="284" y="-880.8" font-family="Helvetica,sans-Serif" font-size="14.00">invoice_no</text>
<polygon fill="#ffffff" stroke="transparent" points="281,-853 281,-874 424,-874 424,-853 281,-853"/>
<polygon fill="none" stroke="black" points="281,-853 281,-874 424,-874 424,-853 281,-853"/>
<text text-anchor="start" x="284" y="-859.8" font-family="Helvetica,sans-Serif" font-size="14.00">customer_id ↗</text>
<polygon fill="#ffffff" stroke="transparent" points="281,-832 281,-853 424,-853 424,-832 281,-832"/>
<polygon fill="none" stroke="black" points="281,-832 281,-853 424,-853 424,-832 281,-832"/>
<text text-anchor="start" x="284" y="-838.8" font-family="Helvetica,sans-Serif" font-size="14.00">jurisdiction_id ↗</text>
<polygon fill="#ffffff" stroke="transparent" points="281,-811 281,-832 424,-832 424,-811 281,-811"/>
<polygon fill="none" stroke="black" points="281,-811 281,-832 424,-832 424,-811 281,-811"/>
<text text-anchor="start" x="284" y="-817.8" font-family="Helvetica,sans-Serif" font-size="14.00">txn_date</text>
<polygon fill="#ffffff" stroke="transparent" points="281,-790 281,-811 424,-811 424,-790 281,-790"/>
<polygon fill="none" stroke="black" points="281,-790 281,-811 424,-811 424,-790 281,-790"/>
<text text-anchor="start" x="284" y="-796.8" font-family="Helvetica,sans-Serif" font-size="14.00">exemption_applied</text>
</g>
<!-- jurisdictions&#45;&gt;transactions -->
<g id="edge3" class="edge">
<title>jurisdictions:jurisdiction_id&#45;&gt;transactions:jurisdiction_id</title>
<path fill="none" stroke="#5b6b7a" d="M172.5,-593C289.86,-593 166.33,-829.04 270.99,-841.49"/>
<polygon fill="#5b6b7a" stroke="#5b6b7a" points="271.01,-841.49 279.77,-846.04 275.51,-841.75 280,-842 280,-842 280,-842 275.51,-841.75 280.23,-837.96 271.01,-841.49 271.01,-841.49"/>
</g>
<!-- tax_returns -->
<g id="node8" class="node">
<title>tax_returns</title>
<polygon fill="#1f3a5f" stroke="transparent" points="293,-512 293,-533 412,-533 412,-512 293,-512"/>
<polygon fill="none" stroke="black" points="293,-512 293,-533 412,-533 412,-512 293,-512"/>
<text text-anchor="start" x="307" y="-519.8" font-family="Helvetica,sans-Serif" font-weight="bold" font-size="14.00" fill="white">tax_returns</text>
<polygon fill="#fff6d6" stroke="transparent" points="293,-491 293,-512 412,-512 412,-491 293,-491"/>
<polygon fill="none" stroke="black" points="293,-491 293,-512 412,-512 412,-491 293,-491"/>
<text text-anchor="start" x="296" y="-498.8" font-family="Helvetica,sans-Serif" font-weight="bold" font-size="14.00">return_id</text>
<text text-anchor="start" x="367" y="-498.8" font-family="Helvetica,sans-Serif" font-size="14.00"> 🔑</text>
<polygon fill="#ffffff" stroke="transparent" points="293,-470 293,-491 412,-491 412,-470 293,-470"/>
<polygon fill="none" stroke="black" points="293,-470 293,-491 412,-491 412,-470 293,-470"/>
<text text-anchor="start" x="296" y="-476.8" font-family="Helvetica,sans-Serif" font-size="14.00">jurisdiction_id ↗</text>
<polygon fill="#ffffff" stroke="transparent" points="293,-449 293,-470 412,-470 412,-449 293,-449"/>
<polygon fill="none" stroke="black" points="293,-449 293,-470 412,-470 412,-449 293,-449"/>
<text text-anchor="start" x="296" y="-455.8" font-family="Helvetica,sans-Serif" font-size="14.00">period_year</text>
<polygon fill="#ffffff" stroke="transparent" points="293,-428 293,-449 412,-449 412,-428 293,-428"/>
<polygon fill="none" stroke="black" points="293,-428 293,-449 412,-449 412,-428 293,-428"/>
<text text-anchor="start" x="296" y="-434.8" font-family="Helvetica,sans-Serif" font-size="14.00">period_month</text>
<polygon fill="#ffffff" stroke="transparent" points="293,-407 293,-428 412,-428 412,-407 293,-407"/>
<polygon fill="none" stroke="black" points="293,-407 293,-428 412,-428 412,-407 293,-407"/>
<text text-anchor="start" x="296" y="-413.8" font-family="Helvetica,sans-Serif" font-size="14.00">tax_remitted</text>
<polygon fill="#ffffff" stroke="transparent" points="293,-386 293,-407 412,-407 412,-386 293,-386"/>
<polygon fill="none" stroke="black" points="293,-386 293,-407 412,-407 412,-386 293,-386"/>
<text text-anchor="start" x="296" y="-392.8" font-family="Helvetica,sans-Serif" font-size="14.00">filed_date</text>
</g>
<!-- jurisdictions&#45;&gt;tax_returns -->
<g id="edge4" class="edge">
<title>jurisdictions:jurisdiction_id&#45;&gt;tax_returns:jurisdiction_id</title>
<path fill="none" stroke="#5b6b7a" d="M172.5,-593C242.02,-593 221.35,-490.84 282.77,-481.66"/>
<polygon fill="#5b6b7a" stroke="#5b6b7a" points="283.02,-481.64 292.29,-485.04 287.51,-481.32 292,-481 292,-481 292,-481 287.51,-481.32 291.71,-476.96 283.02,-481.64 283.02,-481.64"/>
</g>
<!-- products -->
<g id="node3" class="node">
<title>products</title>
<polygon fill="#1f3a5f" stroke="transparent" points="296,-321 296,-342 409,-342 409,-321 296,-321"/>
<polygon fill="none" stroke="black" points="296,-321 296,-342 409,-342 409,-321 296,-321"/>
<text text-anchor="start" x="317.5" y="-328.8" font-family="Helvetica,sans-Serif" font-weight="bold" font-size="14.00" fill="white">products</text>
<polygon fill="#fff6d6" stroke="transparent" points="296,-300 296,-321 409,-321 409,-300 296,-300"/>
<polygon fill="none" stroke="black" points="296,-300 296,-321 409,-321 409,-300 296,-300"/>
<text text-anchor="start" x="299" y="-307.8" font-family="Helvetica,sans-Serif" font-weight="bold" font-size="14.00">product_id</text>
<text text-anchor="start" x="381" y="-307.8" font-family="Helvetica,sans-Serif" font-size="14.00"> 🔑</text>
<polygon fill="#ffffff" stroke="transparent" points="296,-279 296,-300 409,-300 409,-279 296,-279"/>
<polygon fill="none" stroke="black" points="296,-279 296,-300 409,-300 409,-279 296,-279"/>
<text text-anchor="start" x="299" y="-285.8" font-family="Helvetica,sans-Serif" font-size="14.00">sku</text>
<polygon fill="#ffffff" stroke="transparent" points="296,-258 296,-279 409,-279 409,-258 296,-258"/>
<polygon fill="none" stroke="black" points="296,-258 296,-279 409,-279 409,-258 296,-258"/>
<text text-anchor="start" x="299" y="-264.8" font-family="Helvetica,sans-Serif" font-size="14.00">product_name</text>
<polygon fill="#ffffff" stroke="transparent" points="296,-237 296,-258 409,-258 409,-237 296,-237"/>
<polygon fill="none" stroke="black" points="296,-237 296,-258 409,-258 409,-237 296,-237"/>
<text text-anchor="start" x="299" y="-243.8" font-family="Helvetica,sans-Serif" font-size="14.00">tax_category</text>
<polygon fill="#ffffff" stroke="transparent" points="296,-216 296,-237 409,-237 409,-216 296,-216"/>
<polygon fill="none" stroke="black" points="296,-216 296,-237 409,-237 409,-216 296,-216"/>
<text text-anchor="start" x="299" y="-222.8" font-family="Helvetica,sans-Serif" font-size="14.00">unit_price</text>
</g>
<!-- transaction_lines -->
<g id="node7" class="node">
<title>transaction_lines</title>
<polygon fill="#1f3a5f" stroke="transparent" points="533,-650 533,-671 673,-671 673,-650 533,-650"/>
<polygon fill="none" stroke="black" points="533,-650 533,-671 673,-671 673,-650 533,-650"/>
<text text-anchor="start" x="536" y="-657.8" font-family="Helvetica,sans-Serif" font-weight="bold" font-size="14.00" fill="white">transaction_lines</text>
<polygon fill="#fff6d6" stroke="transparent" points="533,-629 533,-650 673,-650 673,-629 533,-629"/>
<polygon fill="none" stroke="black" points="533,-629 533,-650 673,-650 673,-629 533,-629"/>
<text text-anchor="start" x="536" y="-636.8" font-family="Helvetica,sans-Serif" font-weight="bold" font-size="14.00">line_id</text>
<text text-anchor="start" x="586" y="-636.8" font-family="Helvetica,sans-Serif" font-size="14.00"> 🔑</text>
<polygon fill="#ffffff" stroke="transparent" points="533,-608 533,-629 673,-629 673,-608 533,-608"/>
<polygon fill="none" stroke="black" points="533,-608 533,-629 673,-629 673,-608 533,-608"/>
<text text-anchor="start" x="536" y="-614.8" font-family="Helvetica,sans-Serif" font-size="14.00">transaction_id ↗</text>
<polygon fill="#ffffff" stroke="transparent" points="533,-587 533,-608 673,-608 673,-587 533,-587"/>
<polygon fill="none" stroke="black" points="533,-587 533,-608 673,-608 673,-587 533,-587"/>
<text text-anchor="start" x="536" y="-593.8" font-family="Helvetica,sans-Serif" font-size="14.00">product_id ↗</text>
<polygon fill="#ffffff" stroke="transparent" points="533,-566 533,-587 673,-587 673,-566 533,-566"/>
<polygon fill="none" stroke="black" points="533,-566 533,-587 673,-587 673,-566 533,-566"/>
<text text-anchor="start" x="536" y="-572.8" font-family="Helvetica,sans-Serif" font-size="14.00">quantity</text>
<polygon fill="#ffffff" stroke="transparent" points="533,-545 533,-566 673,-566 673,-545 533,-545"/>
<polygon fill="none" stroke="black" points="533,-545 533,-566 673,-566 673,-545 533,-545"/>
<text text-anchor="start" x="536" y="-551.8" font-family="Helvetica,sans-Serif" font-size="14.00">unit_price</text>
<polygon fill="#ffffff" stroke="transparent" points="533,-524 533,-545 673,-545 673,-524 533,-524"/>
<polygon fill="none" stroke="black" points="533,-524 533,-545 673,-545 673,-524 533,-524"/>
<text text-anchor="start" x="536" y="-530.8" font-family="Helvetica,sans-Serif" font-size="14.00">tax_collected</text>
</g>
<!-- products&#45;&gt;transaction_lines -->
<g id="edge8" class="edge">
<title>products:product_id&#45;&gt;transaction_lines:product_id</title>
<path fill="none" stroke="#5b6b7a" d="M410,-311C544.95,-311 400.88,-583.75 522.76,-596.54"/>
<polygon fill="#5b6b7a" stroke="#5b6b7a" points="523.01,-596.55 531.8,-601.04 527.51,-596.77 532,-597 532,-597 532,-597 527.51,-596.77 532.2,-592.96 523.01,-596.55 523.01,-596.55"/>
</g>
<!-- customers -->
<g id="node4" class="node">
<title>customers</title>
<polygon fill="#1f3a5f" stroke="transparent" points="26.5,-784 26.5,-805 152.5,-805 152.5,-784 26.5,-784"/>
<polygon fill="none" stroke="black" points="26.5,-784 26.5,-805 152.5,-805 152.5,-784 26.5,-784"/>
<text text-anchor="start" x="48.5" y="-791.8" font-family="Helvetica,sans-Serif" font-weight="bold" font-size="14.00" fill="white">customers</text>
<polygon fill="#fff6d6" stroke="transparent" points="26.5,-763 26.5,-784 152.5,-784 152.5,-763 26.5,-763"/>
<polygon fill="none" stroke="black" points="26.5,-763 26.5,-784 152.5,-784 152.5,-763 26.5,-763"/>
<text text-anchor="start" x="29.5" y="-770.8" font-family="Helvetica,sans-Serif" font-weight="bold" font-size="14.00">customer_id</text>
<text text-anchor="start" x="124.5" y="-770.8" font-family="Helvetica,sans-Serif" font-size="14.00"> 🔑</text>
<polygon fill="#ffffff" stroke="transparent" points="26.5,-742 26.5,-763 152.5,-763 152.5,-742 26.5,-742"/>
<polygon fill="none" stroke="black" points="26.5,-742 26.5,-763 152.5,-763 152.5,-742 26.5,-742"/>
<text text-anchor="start" x="29.5" y="-748.8" font-family="Helvetica,sans-Serif" font-size="14.00">customer_name</text>
<polygon fill="#ffffff" stroke="transparent" points="26.5,-721 26.5,-742 152.5,-742 152.5,-721 26.5,-721"/>
<polygon fill="none" stroke="black" points="26.5,-721 26.5,-742 152.5,-742 152.5,-721 26.5,-721"/>
<text text-anchor="start" x="29.5" y="-727.8" font-family="Helvetica,sans-Serif" font-size="14.00">customer_type</text>
<polygon fill="#ffffff" stroke="transparent" points="26.5,-700 26.5,-721 152.5,-721 152.5,-700 26.5,-700"/>
<polygon fill="none" stroke="black" points="26.5,-700 26.5,-721 152.5,-721 152.5,-700 26.5,-700"/>
<text text-anchor="start" x="29.5" y="-706.8" font-family="Helvetica,sans-Serif" font-size="14.00">state_code</text>
</g>
<!-- customers&#45;&gt;exemption_certificates -->
<g id="edge5" class="edge">
<title>customers:customer_id&#45;&gt;exemption_certificates:customer_id</title>
<path fill="none" stroke="#5b6b7a" d="M153.5,-774C208.79,-774 200.66,-702.51 249.02,-694.69"/>
<polygon fill="#5b6b7a" stroke="#5b6b7a" points="249.03,-694.69 258.31,-698.04 253.51,-694.35 258,-694 258,-694 258,-694 253.51,-694.35 257.69,-689.96 249.03,-694.69 249.03,-694.69"/>
</g>
<!-- customers&#45;&gt;transactions -->
<g id="edge6" class="edge">
<title>customers:customer_id&#45;&gt;transactions:customer_id</title>
<path fill="none" stroke="#5b6b7a" d="M153.5,-774C219.02,-774 212.11,-854.85 270.84,-862.43"/>
<polygon fill="#5b6b7a" stroke="#5b6b7a" points="271.02,-862.44 279.75,-867.04 275.51,-862.72 280,-863 280,-863 280,-863 275.51,-862.72 280.25,-858.96 271.02,-862.44 271.02,-862.44"/>
</g>
<!-- transactions&#45;&gt;transaction_lines -->
<g id="edge7" class="edge">
<title>transactions:transaction_id&#45;&gt;transaction_lines:transaction_id</title>
<path fill="none" stroke="#5b6b7a" d="M425,-906C557.94,-906 403.45,-632.3 522.92,-619.47"/>
<polygon fill="#5b6b7a" stroke="#5b6b7a" points="523.01,-619.46 532.21,-623.04 527.51,-619.23 532,-619 532,-619 532,-619 527.51,-619.23 531.79,-614.96 523.01,-619.46 523.01,-619.46"/>
</g>
</g>
</svg>
